<?xml version="1.0" standalone="no"?>
<!DOCTYPE svg PUBLIC "-//W3C//DTD SVG 20010904//EN"
 "http://www.w3.org/TR/2001/REC-SVG-20010904/DTD/svg10.dtd">
<svg version="1.0" xmlns="http://www.w3.org/2000/svg"
 width="500.000000pt" height="500.000000pt" viewBox="0 0 500.000000 500.000000"
 preserveAspectRatio="xMidYMid meet">

<g transform="translate(0.000000,500.000000) scale(0.100000,-0.100000)"
fill="#e8305e" stroke="none">
<path d="M3375 4200 c-121 -32 -203 -70 -326 -153 -81 -54 -231 -167 -249
-188 -3 -3 -36 -29 -75 -59 -153 -116 -249 -136 -385 -81 -39 16 -89 41 -111
55 -21 14 -41 26 -44 26 -3 0 -69 42 -148 93 -232 152 -210 139 -339 203 -175
87 -329 122 -482 109 -82 -7 -97 -11 -184 -53 -146 -69 -271 -253 -317 -467
-44 -203 -40 -536 10 -830 113 -662 514 -1604 862 -2022 124 -150 234 -245
312 -272 71 -24 161 -2 210 50 40 43 87 161 120 304 65 275 124 435 205 558
46 69 131 155 190 192 56 35 46 45 -16 14 -159 -81 -274 -204 -381 -411 -55
-107 -86 -182 -138 -343 -62 -188 -91 -224 -153 -186 -36 23 -116 104 -161
166 -17 22 -33 42 -36 45 -16 12 -151 233 -192 315 -249 494 -470 1219 -528
1735 -15 137 -15 445 0 540 23 143 75 259 135 304 71 54 168 70 274 45 52 -12
237 -97 292 -133 400 -264 477 -309 605 -352 103 -34 186 -30 295 13 101 39
190 99 345 233 290 249 421 325 586 337 310 24 497 -279 499 -808 0 -197 -30
-377 -86 -519 -32 -80 -111 -244 -159 -327 -20 -35 -34 -63 -32 -63 2 0 33 35
69 77 290 346 393 675 348 1101 -21 193 -51 306 -118 440 -80 163 -219 277
-387 317 -83 20 -224 17 -310 -5z"/>
<path d="M1314 3676 c-136 -60 -183 -345 -129 -791 43 -351 144 -692 343
-1160 61 -144 182 -355 299 -522 63 -91 94 -125 55 -60 -111 183 -296 632
-400 967 -127 413 -194 786 -194 1085 -1 225 26 345 83 376 66 35 203 -24 472
-204 265 -178 402 -238 537 -236 45 1 45 1 -19 15 -36 8 -101 32 -145 53 -75
36 -131 76 -426 301 -214 163 -372 221 -476 176z"/>
<path d="M3700 2059 c0 -87 -9 -115 -51 -162 -78 -89 -294 -151 -599 -173 -68
-5 -96 -10 -80 -14 57 -16 252 -21 380 -10 310 25 475 104 457 217 -7 42 -49
128 -84 170 l-22 28 -1 -56z"/>
<path d="M3644 1682 c-6 -4 -15 -21 -18 -39 -20 -89 -132 -146 -366 -188 -47
-8 -103 -15 -125 -16 l-40 -1 45 -10 c95 -21 399 21 495 69 75 38 94 91 59
161 -15 32 -29 38 -50 24z"/>
<path d="M3576 1347 c-14 -57 -98 -103 -241 -131 l-70 -14 100 -1 c153 -1 255
33 255 85 0 22 -25 84 -34 84 -2 0 -6 -10 -10 -23z"/>
<path d="M3514 1054 c-10 -14 -42 -42 -73 -63 -108 -72 -189 -88 -258 -51 -20
11 -39 18 -41 16 -8 -8 66 -175 94 -211 49 -65 119 -78 162 -31 34 35 87 146
109 226 39 140 41 166 7 114z"/>
</g>
</svg>
